HIERARCHY
ROOT Hips
{
	OFFSET 0.000000 0.000000 0.000000
	CHANNELS 6 Xposition Yposition Zposition Zrotation Yrotation Xrotation
	JOINT LHipJoint
	{
		OFFSET 0.000000 0.000000 0.000000
		CHANNELS 6 Xposition Yposition Zposition Zrotation Yrotation Xrotation
		JOINT LeftHip
		{
			OFFSET 1.611894 -0.673180 -0.014919
			CHANNELS 3 Zrotation Yrotation Xrotation
			JOINT LeftKnee
			{
				OFFSET 0.014856 -0.000000 -7.518231
				CHANNELS 6 Xposition Yposition Zposition Zrotation Yrotation Xrotation
				JOINT LeftAnkle
				{
					OFFSET 0.014554 -0.000000 -7.368488
					CHANNELS 6 Xposition Yposition Zposition Zrotation Yrotation Xrotation
					JOINT LeftToe
					{
						OFFSET 0.001350 -2.102140 -0.681086
						CHANNELS 6 Xposition Yposition Zposition Zrotation Yrotation Xrotation
						End Site
						{
							OFFSET 0.000000 -1.101390 0.000000
						}
					}
				}
			}
		}
	}
	JOINT RHipJoint
	{
		OFFSET 0.000000 0.000000 0.000000
		CHANNELS 6 Xposition Yposition Zposition Zrotation Yrotation Xrotation
		JOINT RightHip
		{
			OFFSET -1.611894 -0.673180 -0.014919
			CHANNELS 3 Zrotation Yrotation Xrotation
			JOINT RightKnee
			{
				OFFSET -0.014856 -0.000000 -7.518231
				CHANNELS 6 Xposition Yposition Zposition Zrotation Yrotation Xrotation
				JOINT RightAnkle
				{
					OFFSET -0.014554 -0.000000 -7.368488
					CHANNELS 6 Xposition Yposition Zposition Zrotation Yrotation Xrotation
					JOINT RightToe
					{
						OFFSET -0.001350 -2.102140 -0.681086
						CHANNELS 6 Xposition Yposition Zposition Zrotation Yrotation Xrotation
						End Site
						{
							OFFSET 0.000000 -1.101390 0.000000
						}
					}
				}
			}
		}
	}
	JOINT lowerback
	{
		OFFSET 0.000000 0.000000 0.000000
		CHANNELS 6 Xposition Yposition Zposition Zrotation Yrotation Xrotation
		JOINT Chest
		{
			OFFSET -0.021080 0.169810 2.075730
			CHANNELS 3 Zrotation Yrotation Xrotation
			JOINT Chest2
			{
				OFFSET 0.050700 0.031410 2.084390
				CHANNELS 6 Xposition Yposition Zposition Zrotation Yrotation Xrotation
				JOINT lowerneck
				{
					OFFSET 0.000000 0.000000 0.000000
					CHANNELS 6 Xposition Yposition Zposition Zrotation Yrotation Xrotation
					JOINT Neck
					{
						OFFSET -0.107310 -0.313700 1.604080
						CHANNELS 3 Zrotation Yrotation Xrotation
						JOINT Head
						{
							OFFSET 0.084110 0.308220 1.656790
							CHANNELS 6 Xposition Yposition Zposition Zrotation Yrotation Xrotation
							End Site
							{
								OFFSET 0.039110 0.141460 1.691490
							}
						}
					}
				}
				JOINT LeftCollar
				{
					OFFSET 0.000000 0.000000 0.000000
					CHANNELS 6 Xposition Yposition Zposition Zrotation Yrotation Xrotation
					JOINT LeftShoulder
					{
						OFFSET 2.210152 0.546940 0.732190
						CHANNELS 3 Zrotation Xrotation Yrotation
						JOINT LeftElbow
						{
							OFFSET 4.208010 -0.000001 0.067693
							CHANNELS 6 Xposition Yposition Zposition Zrotation Xrotation Yrotation
							JOINT LeftWrist
							{
								OFFSET 4.447774 -0.000001 0.107699
								CHANNELS 6 Xposition Yposition Zposition Zrotation Xrotation Yrotation
								JOINT lhand
								{
									OFFSET 0.000000 0.000000 0.000000
									CHANNELS 6 Xposition Yposition Zposition Zrotation Xrotation Yrotation
									JOINT LFingers
									{
										OFFSET 0.572473 -0.000000 -0.002868
										CHANNELS 3 Zrotation Xrotation Yrotation
										End Site
										{
											OFFSET 0.461535 0.000000 -0.002313
										}
									}
								}
								JOINT LThumb
								{
									OFFSET 0.000000 0.000000 0.000000
									CHANNELS 6 Xposition Yposition Zposition Zrotation Xrotation Yrotation
									End Site
									{
										OFFSET 0.468585 -0.468590 -0.002347
									}
								}
							}
						}
					}
				}
				JOINT RightCollar
				{
					OFFSET 0.000000 0.000000 0.000000
					CHANNELS 6 Xposition Yposition Zposition Zrotation Yrotation Xrotation
					JOINT RightShoulder
					{
						OFFSET -2.269392 0.546940 0.732190
						CHANNELS 3 Zrotation Xrotation Yrotation
						JOINT RightElbow
						{
							OFFSET -4.208010 -0.000001 0.067693
							CHANNELS 6 Xposition Yposition Zposition Zrotation Xrotation Yrotation
							JOINT RightWrist
							{
								OFFSET -4.447774 -0.000001 0.107699
								CHANNELS 6 Xposition Yposition Zposition Zrotation Xrotation Yrotation
								JOINT rhand
								{
									OFFSET -0.100282 0.186255 0.019922
									CHANNELS 6 Xposition Yposition Zposition Zrotation Xrotation Yrotation
									JOINT RFingers
									{
										OFFSET -0.731912 -0.000000 -0.065197
										CHANNELS 3 Zrotation Xrotation Yrotation
										End Site
										{
											OFFSET -0.590084 -0.000000 -0.052564
										}
									}
								}
								JOINT RThumb
								{
									OFFSET -0.100282 0.186255 0.019922
									CHANNELS 6 Xposition Yposition Zposition Zrotation Xrotation Yrotation
									End Site
									{
										OFFSET -0.599097 -0.601470 -0.053367
									}
								}
							}
						}
					}
				}
			}
		}
	}
}
MOTION
Frames: 6
Frame Time: 0.033333
0.194131 -85.992790 14.408609 7.987000 -4.459365 12.034777 -0.000001 -0.000003 -0.000001 -0.000001 -0.000000 -0.000003 13.849200 -4.772170 11.949203 0.014857 -0.000011 -7.518229 -5.382322 8.413902 21.287538 0.014558 -0.000003 -7.368485 -0.953063 -5.752707 0.494607 0.001348 -2.102133 -0.681093 -0.131149 0.573847 -13.217491 -0.000001 -0.000003 -0.000001 0.000005 0.000001 0.000002 -1.905310 11.011447 -64.632933 -0.014855 -0.000004 -7.518227 -0.396149 10.212693 114.516188 -0.014554 -0.000006 -7.368494 -1.696653 0.083199 -2.630310 -0.001350 -2.102143 -0.681076 0.000017 0.000018 -0.039806 -0.000001 -0.000003 -0.000002 -16.668486 6.227205 -0.499241 -2.340939 -3.116711 1.946204 0.050700 0.031413 2.084390 -2.406787 -2.897430 4.980755 0.000001 0.000004 0.000000 1.349795 1.190622 -0.264583 0.000000 0.000001 -0.000003 0.084110 0.308196 1.656790 8.741639 3.141540 -17.373300 0.000002 0.000004 -0.000002 -1.742346 1.360229 1.160518 -17.417800 -40.134280 43.345316 4.208009 -0.000005 0.067691 -103.427014 -0.000014 0.000005 4.447770 -0.000002 0.107695 2.242022 -10.125103 -5.363056 -0.000009 -0.000000 -0.000001 0.000000 0.000000 -0.000000 0.000004 -0.000001 -0.000001 -0.000009 -0.000000 -0.000002 0.000007 -0.000001 0.000001 0.000003 0.000005 0.000002 0.650842 2.783387 0.517905 -12.647191 63.696186 -51.563758 -4.208009 -0.000001 0.067694 94.094544 -0.000065 -0.000104 -4.447775 0.000009 0.107700 -16.228950 -7.126867 14.476724 -0.100285 0.186243 0.019922 -0.000001 0.000001 -0.000005 -0.000002 -0.000000 -0.000004 -0.100282 0.186244 0.019922 -0.000006 0.000003 -0.000000 
0.271052 -89.149017 14.816474 8.353127 -3.207935 12.306279 -0.000001 -0.000008 0.000003 0.000001 0.000000 -0.000003 12.050191 -6.464170 20.342906 0.014856 -0.000006 -7.518227 0.536847 0.785137 22.591810 0.014557 -0.000008 -7.368490 -2.086454 -8.487195 19.738661 0.001352 -2.102138 -0.681089 -0.000002 -0.000022 0.292847 -0.000001 -0.000008 0.000003 -0.000002 0.000000 0.000001 -2.410711 10.426696 -66.259843 -0.014857 0.000009 -7.518221 -5.874095 8.346537 91.859091 -0.014555 -0.000003 -7.368487 -2.933768 -0.713556 0.256245 -0.001350 -2.102140 -0.681102 0.000018 0.000019 0.020386 -0.000001 -0.000009 0.000002 -18.376658 3.192456 -3.294176 -2.484445 -2.632017 2.539345 0.050701 0.031425 2.084393 -2.591756 -2.247246 6.473223 0.000002 0.000004 0.000006 1.672770 1.249609 -0.463800 0.000001 0.000001 0.000001 0.084110 0.308221 1.656780 10.046492 3.485242 -15.215155 0.000003 0.000003 0.000005 -1.308142 1.364305 1.070266 -21.741044 -38.347691 37.306647 4.208013 -0.000004 0.067695 -112.279724 -0.000016 0.000003 4.447776 0.000000 0.107697 14.442073 -18.980040 -7.547140 0.000013 -0.000002 0.000001 -0.000001 -0.000003 -0.000000 -0.000001 0.000001 -0.000001 0.000013 -0.000001 0.000002 0.000005 -0.000005 0.000005 0.000004 0.000005 0.000007 0.564599 4.311335 0.473032 -23.362368 67.631987 -45.744417 -4.208013 0.000000 0.067695 97.631701 -0.000071 -0.000007 -4.447773 0.000002 0.107700 -11.339063 -13.669937 15.480284 -0.100282 0.186239 0.019922 -0.000001 -0.000001 -0.000001 -0.000001 -0.000001 -0.000002 -0.100281 0.186240 0.019923 -0.000002 -0.000003 0.000002 
0.265721 -92.141457 15.135634 7.961783 -2.937189 12.324439 -0.000001 -0.000014 -0.000001 0.000003 0.000000 -0.000003 4.859797 -3.057560 21.603313 0.014855 0.000018 -7.518233 -6.104240 3.409163 39.554179 0.014554 0.000001 -7.368470 -0.705937 -3.563466 23.020333 0.001351 -2.102129 -0.681077 -0.000005 -0.000021 -0.361681 -0.000001 -0.000014 -0.000001 -0.000001 -0.000000 0.000001 0.994355 12.083860 -61.244312 -0.014855 0.000008 -7.518239 -11.096637 3.579394 64.572772 -0.014555 0.000004 -7.368480 -6.478145 -5.865293 1.081377 -0.001351 -2.102129 -0.681083 0.000018 0.000019 -0.767916 -0.000001 -0.000014 -0.000002 -18.033726 2.679121 -3.455991 -2.396884 -2.976754 2.738531 0.050703 0.031417 2.084388 -2.572545 -2.538357 6.864523 0.000001 -0.000011 -0.000007 1.697097 1.268846 -0.789519 0.000000 0.000000 -0.000004 0.084112 0.308212 1.656790 9.742310 3.951150 -15.244233 0.000002 -0.000011 -0.000009 -2.439512 2.131512 1.344095 -21.983951 -29.001342 39.793908 4.208020 -0.000000 0.067696 -117.638616 -0.000029 0.000005 4.447774 -0.000000 0.107707 22.031532 -19.569001 -8.698225 -0.000007 -0.000001 0.000004 -0.000002 0.000002 -0.000001 -0.000001 0.000001 0.000002 -0.000006 -0.000001 0.000005 0.000002 -0.000002 0.000008 0.000003 -0.000010 -0.000004 0.862122 3.885791 0.542419 -28.814335 62.597277 -47.982175 -4.208010 -0.000002 0.067694 97.043205 -0.000072 -0.000063 -4.447775 -0.000007 0.107699 -14.784156 -15.165544 15.967763 -0.100279 0.186244 0.019924 -0.000001 0.000000 -0.000005 -0.000001 -0.000001 0.000002 -0.100279 0.186244 0.019923 0.000001 0.000002 -0.000003 
0.270370 -94.930588 15.367496 7.611787 -2.515202 11.433300 -0.000001 0.000010 -0.000000 0.000002 0.000001 -0.000002 3.540402 -2.153754 17.058708 0.014854 -0.000007 -7.518231 -6.174591 7.473416 64.885916 0.014554 -0.000001 -7.368495 -1.287439 0.432816 27.518416 0.001347 -2.102147 -0.681090 -0.000005 -0.000022 0.050285 -0.000001 0.000010 -0.000000 -0.000002 -0.000000 -0.000000 3.717942 9.599810 -49.762368 -0.014853 0.000009 -7.518229 -7.610839 0.074662 30.486662 -0.014554 0.000002 -7.368486 -3.768834 -8.909077 -1.153357 -0.001351 -2.102140 -0.681085 0.000017 0.000018 -0.868227 -0.000001 0.000010 -0.000001 -16.570502 2.885725 -1.625281 -2.243104 -3.595926 2.460729 0.050695 0.031411 2.084392 -2.433347 -3.267100 6.172262 0.000001 -0.000013 0.000004 1.497812 1.109610 -1.310905 0.000001 -0.000000 -0.000000 0.084109 0.308223 1.656788 8.446439 4.720084 -16.969861 0.000002 -0.000014 0.000001 -4.160725 3.224776 1.764501 -18.203878 -13.882081 49.884075 4.208007 0.000007 0.067688 -115.794874 -0.000024 0.000007 4.447785 0.000002 0.107701 18.121214 -12.515367 -7.804983 0.000002 0.000002 -0.000000 0.000002 -0.000000 -0.000002 -0.000001 0.000004 0.000002 0.000001 0.000003 0.000000 0.000004 -0.000003 0.000003 0.000003 -0.000013 0.000006 1.779299 1.870857 0.759081 -27.215633 53.085094 -54.446740 -4.208016 0.000002 0.067696 94.930737 -0.000051 -0.000066 -4.447776 -0.000004 0.107697 -16.770109 -10.828836 17.817344 -0.100281 0.186258 0.019921 -0.000001 0.000000 -0.000001 -0.000002 0.000001 -0.000003 -0.100281 0.186258 0.019921 -0.000001 0.000000 0.000002 
0.267197 -97.833611 15.296979 6.727959 -2.206038 9.900626 -0.000000 -0.000001 0.000001 0.000001 0.000003 -0.000008 3.385134 -1.312671 14.427281 0.014856 -0.000002 -7.518238 -2.795982 4.402292 87.399640 0.014555 0.000002 -7.368500 -0.369491 -2.256784 23.048065 0.001350 -2.102152 -0.681087 -0.000006 -0.000020 -0.023417 0.000000 -0.000001 0.000001 -0.000001 0.000001 0.000001 6.876432 7.292576 -42.865434 -0.014855 -0.000002 -7.518224 -9.123433 3.867535 7.664725 -0.014554 -0.000004 -7.368492 -7.874594 -7.453609 18.591085 -0.001350 -2.102144 -0.681089 0.000011 0.000024 -16.503042 -0.000000 -0.000001 -0.000000 -13.383414 2.888355 2.072436 -1.886014 -3.779014 1.519182 0.050700 0.031412 2.084392 -1.988781 -3.525003 4.103679 0.000003 0.000016 0.000007 1.112377 1.082024 -1.768339 0.000000 0.000001 -0.000003 0.084112 0.308219 1.656788 6.302994 4.922207 -18.644844 0.000004 0.000016 0.000005 -5.706972 4.548576 2.129126 -14.616487 2.799237 60.652066 4.208007 -0.000005 0.067688 -108.153143 -0.000017 -0.000002 4.447771 -0.000001 0.107704 7.153583 -5.250996 -3.964923 -0.000000 0.000000 -0.000004 0.000002 0.000000 0.000005 -0.000000 0.000001 -0.000001 -0.000002 0.000000 -0.000003 0.000004 -0.000002 0.000008 0.000004 0.000017 0.000007 2.553145 -0.558460 0.953842 -22.323613 43.125326 -59.919877 -4.208019 -0.000006 0.067694 92.521620 -0.000066 -0.000063 -4.447773 -0.000009 0.107698 -9.290737 -2.193482 22.075124 -0.100281 0.186244 0.019923 -0.000002 0.000001 0.000006 -0.000001 -0.000003 -0.000000 -0.100282 0.186244 0.019923 -0.000003 0.000005 0.000005 
0.268682 -100.575821 15.059185 4.139908 -1.896939 9.090388 -0.000001 -0.000005 -0.000001 -0.000001 -0.000001 -0.000001 0.806392 1.581072 8.886539 0.014854 -0.000008 -7.518230 2.904800 3.720859 109.944257 0.014556 -0.000013 -7.368479 -0.739098 -5.103598 11.431676 0.001349 -2.102133 -0.681082 -0.000009 -0.000019 -0.051027 -0.000000 -0.000005 -0.000001 -0.000002 0.000000 0.000001 3.355764 2.687175 -36.250874 -0.014856 0.000011 -7.518232 -9.904174 1.699211 0.639957 -0.014554 0.000000 -7.368488 -5.252641 -4.378507 35.577229 -0.001352 -2.102142 -0.681083 0.000007 0.000024 -21.655291 -0.000000 -0.000005 -0.000002 -7.819815 1.957984 7.258892 -1.123801 -2.898771 0.089582 0.050701 0.031400 2.084401 -1.137963 -2.847808 1.195204 -0.000001 0.000018 -0.000001 0.556527 1.452717 -1.937908 0.000001 -0.000000 -0.000003 0.084110 0.308211 1.656788 3.731715 4.166537 -19.172604 -0.000001 0.000017 -0.000003 -6.983038 5.553340 2.428027 -10.559298 16.759631 67.121847 4.208012 -0.000004 0.067688 -95.313862 0.000006 -0.000018 4.447784 0.000004 0.107705 -2.804452 -3.551572 0.317256 0.000007 -0.000005 0.000001 -0.000000 0.000000 -0.000003 -0.000001 0.000001 -0.000002 0.000007 -0.000005 0.000001 0.000007 -0.000001 0.000003 -0.000000 0.000019 0.000001 3.310475 -3.949817 1.209802 -16.362307 32.308192 -62.568262 -4.208014 -0.000002 0.067696 89.133702 -0.000069 -0.000014 -4.447786 -0.000002 0.107697 7.222591 6.288524 26.120897 -0.100277 0.186258 0.019926 -0.000004 0.000001 0.000003 0.000001 -0.000002 -0.000002 -0.100277 0.186260 0.019925 -0.000007 0.000003 0.000005 
